<?xml version="1.0" standalone="no"?>
<!DOCTYPE svg PUBLIC "-//W3C//DTD SVG 20010904//EN"
 "http://www.w3.org/TR/2001/REC-SVG-20010904/DTD/svg10.dtd">
<svg version="1.0" xmlns="http://www.w3.org/2000/svg"
 width="1024.000000pt" height="1024.000000pt" viewBox="0 0 1024.000000 1024.000000"
 preserveAspectRatio="xMidYMid meet">
<metadata>
Created by potrace 1.14, written by Peter Selinger 2001-2017
</metadata>
<g transform="translate(0.000000,1024.000000) scale(0.100000,-0.100000)"
fill="#000000" stroke="none">
<path d="M2158 7345 c-2 -1 -34 -6 -73 -9 -38 -4 -77 -9 -85 -11 -8 -2 -33 -6
-55 -10 -22 -3 -56 -10 -75 -15 -19 -5 -50 -12 -68 -15 -101 -17 -427 -142
-502 -192 -19 -13 -38 -23 -41 -23 -6 0 -55 -29 -166 -99 -29 -18 -53 -37 -53
-42 0 -5 -5 -9 -11 -9 -21 0 -153 -114 -274 -236 -66 -67 -124 -128 -130 -135
-5 -8 -26 -34 -46 -59 -46 -57 -157 -229 -195 -300 -16 -30 -32 -56 -36 -58
-5 -2 -8 -9 -8 -15 0 -7 -9 -29 -20 -50 -11 -20 -20 -44 -20 -52 0 -8 -4 -15
-10 -15 -5 0 -10 -8 -10 -17 0 -10 -10 -38 -21 -63 -11 -25 -22 -52 -24 -60
-2 -8 -13 -41 -24 -72 -11 -32 -18 -58 -15 -58 3 0 1 -8 -5 -17 -11 -21 -48
-201 -59 -281 -9 -73 -9 -563 1 -622 3 -25 9 -57 12 -72 3 -16 7 -38 9 -50 6
-34 37 -161 43 -178 3 -8 7 -22 8 -30 3 -17 22 -71 42 -117 7 -17 13 -34 13
-38 0 -21 122 -270 174 -355 81 -133 213 -298 331 -417 67 -68 127 -123 133
-123 6 0 12 -4 14 -9 5 -16 232 -180 240 -175 4 3 8 1 8 -5 0 -5 12 -16 28
-24 78 -42 262 -134 297 -149 60 -26 245 -86 284 -93 19 -3 42 -10 52 -16 11
-5 19 -8 19 -5 0 2 16 0 35 -5 19 -6 47 -12 63 -14 15 -2 43 -6 62 -9 19 -3
53 -8 75 -12 57 -11 1935 -17 1935 -7 0 5 -12 16 -28 26 -27 16 -42 29 -161
135 -108 97 -307 310 -335 361 -5 9 -15 20 -23 24 -7 4 -13 15 -13 22 0 8 -3
15 -7 15 -5 0 -19 17 -33 38 -14 20 -33 45 -42 56 -9 10 -22 31 -28 47 -7 16
-16 29 -21 29 -5 0 -9 5 -9 10 0 6 -15 34 -33 63 -51 81 -54 86 -105 187 l-49
95 -387 1 c-213 1 -411 5 -439 8 -194 26 -416 135 -578 285 -58 53 -189 211
-189 227 0 3 -8 18 -18 32 -25 36 -102 218 -102 240 0 10 -5 23 -12 30 -7 7
-9 12 -6 12 3 0 2 17 -3 38 -30 121 -32 332 -3 462 3 14 7 36 10 50 8 38 44
139 72 200 71 151 230 344 357 430 28 18 53 38 57 44 4 6 8 7 8 3 0 -5 12 0
28 11 72 50 265 122 372 138 25 3 320 6 657 6 l612 -1 -10 27 c-6 14 -14 31
-19 37 -8 11 -26 41 -86 152 -21 37 -41 71 -47 74 -5 3 -8 9 -7 13 1 4 -9 24
-21 44 -13 20 -23 39 -23 42 -1 4 -16 30 -56 100 -5 8 -20 35 -33 60 -13 25
-50 90 -82 145 -32 55 -67 116 -79 137 -12 20 -48 80 -81 134 -33 55 -66 111
-74 127 l-14 28 -383 -2 c-210 0 -384 -2 -386 -4z"/>
<path d="M4207 7326 c-9 -14 -17 -30 -17 -36 0 -5 -3 -10 -7 -10 -5 0 -13 -10
-19 -23 -32 -65 -57 -107 -65 -107 -5 0 -9 -5 -9 -11 0 -7 -14 -35 -32 -63
-41 -66 -148 -257 -148 -264 0 -3 -6 -13 -14 -21 -7 -9 -30 -47 -51 -86 -20
-38 -41 -77 -46 -85 -19 -32 -109 -192 -109 -194 0 -2 -22 -42 -50 -90 -27
-48 -50 -91 -50 -95 0 -5 238 -9 529 -9 628 0 661 -3 844 -74 91 -35 224 -107
263 -143 6 -5 31 -26 54 -45 24 -19 53 -46 64 -59 12 -13 35 -37 52 -55 78
-79 173 -248 223 -394 46 -137 61 -369 32 -528 -11 -60 -63 -223 -95 -296
l-16 -36 33 -8 c17 -4 34 -8 37 -9 3 0 11 -4 19 -9 10 -7 962 -13 1072 -7 11
1 18 14 23 44 7 44 10 61 20 115 15 78 18 103 30 205 17 142 12 414 -9 517 -3
14 -7 39 -9 55 -9 61 -57 265 -73 305 -3 8 -7 20 -8 25 -15 62 -117 290 -185
410 -24 43 -131 204 -159 238 -156 194 -352 380 -511 483 -25 16 -47 31 -50
34 -7 8 -94 58 -175 101 -97 50 -300 135 -308 128 -2 -2 -10 1 -18 8 -8 7 -28
14 -44 17 -17 3 -46 10 -65 16 -56 17 -201 48 -250 54 -25 4 -63 9 -85 12 -22
3 -166 8 -321 11 l-280 5 -17 -26z"/>
<path d="M6271 7309 c148 -115 400 -364 468 -462 8 -12 23 -31 33 -41 10 -11
18 -23 18 -26 0 -4 10 -19 23 -33 60 -71 210 -334 264 -464 l21 -51 399 0
c423 0 471 -3 566 -33 33 -10 63 -19 68 -19 27 0 259 -123 267 -142 2 -4 9 -8
16 -8 16 0 192 -170 234 -226 88 -116 158 -263 198 -419 21 -81 26 -125 27
-235 2 -171 -7 -233 -49 -365 -99 -304 -329 -557 -617 -683 -83 -35 -161 -61
-207 -67 -14 -2 -25 -4 -25 -5 0 -12 -2297 -18 -2410 -6 -63 7 -145 26 -230
53 -66 21 -215 92 -239 115 -11 10 -24 18 -29 18 -25 0 -211 174 -257 240 -13
19 -29 40 -35 47 -24 29 -32 42 -71 118 -46 89 -100 240 -110 307 -17 124 -20
164 -18 231 2 98 14 189 25 203 5 6 6 13 3 16 -7 8 34 141 67 214 l27 62 -46
12 c-26 6 -56 15 -67 19 -11 3 -252 6 -535 6 l-515 -1 -12 -25 c-6 -13 -14
-42 -18 -64 -8 -46 -13 -70 -15 -70 -1 0 -3 -9 -4 -20 -8 -62 -17 -126 -23
-170 -15 -108 -7 -445 12 -535 3 -14 8 -42 11 -63 7 -43 8 -50 18 -92 4 -16
12 -50 18 -75 17 -73 88 -283 104 -307 8 -13 12 -23 9 -23 -9 0 94 -199 152
-292 126 -203 297 -400 468 -537 39 -31 72 -58 75 -61 13 -15 111 -80 119 -80
5 0 11 -4 13 -8 6 -16 215 -130 339 -185 81 -36 255 -94 344 -114 11 -2 31 -7
45 -10 14 -3 34 -7 45 -8 11 -2 20 -4 20 -5 0 -3 41 -10 68 -12 15 0 27 -4 27
-7 0 -3 35 -8 78 -11 122 -8 2640 -6 2707 2 33 4 78 9 100 12 55 6 215 42 300
68 39 12 75 23 80 24 33 6 216 85 305 132 58 30 115 59 127 66 13 6 23 14 23
19 0 4 5 7 10 7 13 0 124 77 215 149 81 64 251 231 317 311 52 63 178 237 178
245 0 4 13 25 28 48 30 44 116 218 150 302 60 148 111 330 128 455 3 25 9 54
12 65 3 11 7 139 8 285 2 193 -1 288 -11 350 -8 47 -17 99 -19 116 -3 17 -10
43 -15 58 -6 14 -8 26 -6 26 2 0 0 11 -5 25 -5 14 -12 36 -14 48 -6 34 -61
192 -94 272 -50 121 -170 339 -196 357 -6 4 -7 8 -3 8 4 0 3 6 -3 13 -6 6 -31
39 -56 72 -85 113 -109 140 -224 256 -63 63 -151 142 -195 175 -44 32 -81 62
-83 67 -2 4 -8 7 -13 7 -5 0 -18 8 -29 18 -52 44 -278 166 -395 212 -11 4 -36
15 -56 24 -41 18 -195 67 -224 72 -11 2 -60 13 -109 24 -49 11 -110 23 -135
26 -25 3 -59 8 -76 12 -16 3 -459 7 -984 9 l-954 4 54 -42z"/>
</g>
</svg>
